<mxfile host="Electron" modified="2024-07-30T19:16:01.669Z" agent="Mozilla/5.0 (Windows NT 10.0; Win64; x64) AppleWebKit/537.36 (KHTML, like Gecko) draw.io/22.1.16 Chrome/120.0.6099.109 Electron/28.1.0 Safari/537.36" etag="bWKuQr0_f4iblq5tH9UI" version="22.1.16" type="device">
  <diagram name="Page-1" id="2IItIkh58UbBTl-Ynkhy">
    <mxGraphModel dx="1418" dy="730" grid="1" gridSize="10" guides="1" tooltips="1" connect="1" arrows="1" fold="1" page="1" pageScale="1" pageWidth="800" pageHeight="210" math="0" shadow="0">
      <root>
        <mxCell id="0" />
        <mxCell id="1" parent="0" />
        <mxCell id="s-xfxx-hKlLSCwK8wh86-1" value="Bouton &quot;Petite Tasse&quot;" style="rounded=0;whiteSpace=wrap;html=1;" parent="1" vertex="1">
          <mxGeometry x="165" y="220" width="140" height="30" as="geometry" />
        </mxCell>
        <mxCell id="s-xfxx-hKlLSCwK8wh86-2" value="Bouton &quot;Grande Tasse&quot;" style="rounded=0;whiteSpace=wrap;html=1;" parent="1" vertex="1">
          <mxGeometry x="165" y="260" width="140" height="30" as="geometry" />
        </mxCell>
        <mxCell id="s-xfxx-hKlLSCwK8wh86-3" value="Capteur de débit d&#39;eau" style="rounded=0;whiteSpace=wrap;html=1;" parent="1" vertex="1">
          <mxGeometry x="165" y="300" width="140" height="30" as="geometry" />
        </mxCell>
        <mxCell id="s-xfxx-hKlLSCwK8wh86-4" value="Capteur de température" style="rounded=0;whiteSpace=wrap;html=1;" parent="1" vertex="1">
          <mxGeometry x="165" y="340" width="140" height="30" as="geometry" />
        </mxCell>
        <mxCell id="s-xfxx-hKlLSCwK8wh86-5" value="Carte à microcontrôleur" style="rounded=0;whiteSpace=wrap;html=1;verticalAlign=top;" parent="1" vertex="1">
          <mxGeometry x="325" y="220" width="150" height="150" as="geometry" />
        </mxCell>
        <mxCell id="s-xfxx-hKlLSCwK8wh86-6" value="MCU&lt;br&gt;PIC16F676" style="rounded=0;whiteSpace=wrap;html=1;fillColor=#dae8fc;strokeColor=#6c8ebf;verticalAlign=top;" parent="1" vertex="1">
          <mxGeometry x="360" y="246" width="80" height="114" as="geometry" />
        </mxCell>
        <mxCell id="s-xfxx-hKlLSCwK8wh86-7" value="LED &quot;Grande tasse&quot;" style="rounded=0;whiteSpace=wrap;html=1;" parent="1" vertex="1">
          <mxGeometry x="495" y="260" width="140" height="30" as="geometry" />
        </mxCell>
        <mxCell id="s-xfxx-hKlLSCwK8wh86-8" value="LED &quot;Petite tasse&quot;" style="rounded=0;whiteSpace=wrap;html=1;" parent="1" vertex="1">
          <mxGeometry x="495" y="220" width="140" height="30" as="geometry" />
        </mxCell>
        <mxCell id="s-xfxx-hKlLSCwK8wh86-9" value="Pompe Invensys 60 W" style="rounded=0;whiteSpace=wrap;html=1;" parent="1" vertex="1">
          <mxGeometry x="495" y="300" width="140" height="30" as="geometry" />
        </mxCell>
        <mxCell id="s-xfxx-hKlLSCwK8wh86-10" value="Élément chauffant" style="rounded=0;whiteSpace=wrap;html=1;" parent="1" vertex="1">
          <mxGeometry x="495" y="340" width="140" height="30" as="geometry" />
        </mxCell>
        <mxCell id="s-xfxx-hKlLSCwK8wh86-11" value="Alimentation" style="rounded=0;whiteSpace=wrap;html=1;" parent="1" vertex="1">
          <mxGeometry x="325" y="380" width="150" height="30" as="geometry" />
        </mxCell>
        <mxCell id="s-xfxx-hKlLSCwK8wh86-12" style="edgeStyle=orthogonalEdgeStyle;rounded=0;orthogonalLoop=1;jettySize=auto;html=1;exitX=1;exitY=0.5;exitDx=0;exitDy=0;entryX=-0.003;entryY=0.099;entryDx=0;entryDy=0;entryPerimeter=0;endArrow=blockThin;endFill=1;" parent="1" source="s-xfxx-hKlLSCwK8wh86-1" target="s-xfxx-hKlLSCwK8wh86-5" edge="1">
          <mxGeometry relative="1" as="geometry" />
        </mxCell>
        <mxCell id="s-xfxx-hKlLSCwK8wh86-13" style="edgeStyle=orthogonalEdgeStyle;rounded=0;orthogonalLoop=1;jettySize=auto;html=1;exitX=1;exitY=0.5;exitDx=0;exitDy=0;entryX=0;entryY=0.363;entryDx=0;entryDy=0;entryPerimeter=0;endArrow=blockThin;endFill=1;" parent="1" source="s-xfxx-hKlLSCwK8wh86-2" target="s-xfxx-hKlLSCwK8wh86-5" edge="1">
          <mxGeometry relative="1" as="geometry" />
        </mxCell>
        <mxCell id="s-xfxx-hKlLSCwK8wh86-14" style="edgeStyle=orthogonalEdgeStyle;rounded=0;orthogonalLoop=1;jettySize=auto;html=1;exitX=1;exitY=0.5;exitDx=0;exitDy=0;entryX=-0.003;entryY=0.629;entryDx=0;entryDy=0;entryPerimeter=0;endArrow=blockThin;endFill=1;" parent="1" source="s-xfxx-hKlLSCwK8wh86-3" target="s-xfxx-hKlLSCwK8wh86-5" edge="1">
          <mxGeometry relative="1" as="geometry" />
        </mxCell>
        <mxCell id="s-xfxx-hKlLSCwK8wh86-15" style="edgeStyle=orthogonalEdgeStyle;rounded=0;orthogonalLoop=1;jettySize=auto;html=1;exitX=1;exitY=0.5;exitDx=0;exitDy=0;entryX=-0.003;entryY=0.896;entryDx=0;entryDy=0;entryPerimeter=0;endArrow=blockThin;endFill=1;" parent="1" source="s-xfxx-hKlLSCwK8wh86-4" target="s-xfxx-hKlLSCwK8wh86-5" edge="1">
          <mxGeometry relative="1" as="geometry" />
        </mxCell>
        <mxCell id="s-xfxx-hKlLSCwK8wh86-16" style="edgeStyle=orthogonalEdgeStyle;rounded=0;orthogonalLoop=1;jettySize=auto;html=1;exitX=0;exitY=0.5;exitDx=0;exitDy=0;entryX=1.005;entryY=0.104;entryDx=0;entryDy=0;entryPerimeter=0;startArrow=blockThin;startFill=1;endArrow=none;endFill=0;" parent="1" source="s-xfxx-hKlLSCwK8wh86-8" target="s-xfxx-hKlLSCwK8wh86-5" edge="1">
          <mxGeometry relative="1" as="geometry" />
        </mxCell>
        <mxCell id="s-xfxx-hKlLSCwK8wh86-17" style="edgeStyle=orthogonalEdgeStyle;rounded=0;orthogonalLoop=1;jettySize=auto;html=1;exitX=0;exitY=0.5;exitDx=0;exitDy=0;entryX=1;entryY=0.368;entryDx=0;entryDy=0;entryPerimeter=0;startArrow=blockThin;startFill=1;endArrow=none;endFill=0;" parent="1" source="s-xfxx-hKlLSCwK8wh86-7" target="s-xfxx-hKlLSCwK8wh86-5" edge="1">
          <mxGeometry relative="1" as="geometry" />
        </mxCell>
        <mxCell id="s-xfxx-hKlLSCwK8wh86-18" style="edgeStyle=orthogonalEdgeStyle;rounded=0;orthogonalLoop=1;jettySize=auto;html=1;exitX=0;exitY=0.5;exitDx=0;exitDy=0;entryX=1;entryY=0.635;entryDx=0;entryDy=0;entryPerimeter=0;startArrow=blockThin;startFill=1;endArrow=none;endFill=0;" parent="1" source="s-xfxx-hKlLSCwK8wh86-9" target="s-xfxx-hKlLSCwK8wh86-5" edge="1">
          <mxGeometry relative="1" as="geometry" />
        </mxCell>
        <mxCell id="s-xfxx-hKlLSCwK8wh86-19" style="edgeStyle=orthogonalEdgeStyle;rounded=0;orthogonalLoop=1;jettySize=auto;html=1;exitX=0;exitY=0.5;exitDx=0;exitDy=0;entryX=1;entryY=0.901;entryDx=0;entryDy=0;entryPerimeter=0;startArrow=blockThin;startFill=1;endArrow=none;endFill=0;" parent="1" source="s-xfxx-hKlLSCwK8wh86-10" target="s-xfxx-hKlLSCwK8wh86-5" edge="1">
          <mxGeometry relative="1" as="geometry" />
        </mxCell>
        <mxCell id="s-xfxx-hKlLSCwK8wh86-20" value="CPU" style="rounded=0;whiteSpace=wrap;html=1;fillColor=#d5e8d4;strokeColor=#82b366;" parent="1" vertex="1">
          <mxGeometry x="370" y="285" width="60" height="20" as="geometry" />
        </mxCell>
        <mxCell id="s-xfxx-hKlLSCwK8wh86-21" value="RAM" style="rounded=0;whiteSpace=wrap;html=1;fillColor=#d5e8d4;strokeColor=#82b366;" parent="1" vertex="1">
          <mxGeometry x="370" y="310" width="60" height="20" as="geometry" />
        </mxCell>
        <mxCell id="s-xfxx-hKlLSCwK8wh86-22" value="FLASH" style="rounded=0;whiteSpace=wrap;html=1;fillColor=#d5e8d4;strokeColor=#82b366;" parent="1" vertex="1">
          <mxGeometry x="370" y="335" width="60" height="20" as="geometry" />
        </mxCell>
      </root>
    </mxGraphModel>
  </diagram>
</mxfile>
